<svg version="1.1" id="Layer_1" xmlns="http://www.w3.org/2000/svg" xmlns:xlink="http://www.w3.org/1999/xlink" x="0px" y="0px"
	 width="100%" viewBox="0 0 1000 1000" enable-background="new 0 0 1000 1000" xml:space="preserve">
<!-- <path fill="#282828" opacity="1.000000" stroke="none" 
	d="
M645.000000,1001.000000 
	C430.000000,1001.000000 215.500000,1001.000000 1.000000,1001.000000 
	C1.000000,667.666687 1.000000,334.333344 1.000000,1.000000 
	C334.333344,1.000000 667.666687,1.000000 1001.000000,1.000000 
	C1001.000000,334.333344 1001.000000,667.666687 1001.000000,1001.000000 
	C882.500000,1001.000000 764.000000,1001.000000 645.000000,1001.000000 
M448.499939,279.826996 
	C470.328949,279.884003 492.165771,279.593536 513.984985,280.085052 
	C541.959290,280.715240 569.914490,281.930908 597.619446,286.464813 
	C601.800903,287.149078 603.387146,288.843781 604.266479,292.895142 
	C611.397766,325.752716 618.847412,358.541168 625.991211,391.396088 
	C626.876404,395.467194 628.543518,396.980408 632.665894,396.692841 
	C637.309265,396.368958 641.992737,396.642151 646.658508,396.613281 
	C652.908447,396.574615 652.965881,396.428864 652.653748,389.985382 
	C650.420715,343.892395 648.139893,297.801361 646.115784,251.699112 
	C645.914856,247.121750 644.616821,245.903122 640.110657,245.906982 
	C508.297791,246.019653 376.484772,245.997025 244.671814,246.011368 
	C242.911957,246.011566 241.152130,246.208420 239.003220,246.336716 
	C239.003220,251.683228 239.365631,256.529388 238.900085,261.294708 
	C238.445175,265.951263 240.582642,267.240570 244.642151,267.838074 
	C262.593445,270.480133 280.514709,273.326050 298.446167,276.102753 
	C306.076538,277.284302 306.080444,277.289429 306.080505,284.858246 
	C306.081421,433.835205 306.081268,582.812195 306.080719,731.789124 
	C306.080719,732.955627 305.970764,734.132751 306.090668,735.286438 
	C306.369904,737.973511 305.167145,739.213562 302.543121,739.571289 
	C297.100769,740.313232 291.681213,741.221069 286.248840,742.037781 
	C272.090607,744.166382 257.917053,746.200623 243.788620,748.511108 
	C242.085464,748.789612 239.355667,750.435608 239.261871,751.619080 
	C238.794067,757.521851 239.048019,763.481873 239.048019,769.705078 
	C313.784119,769.705078 387.850037,769.705078 462.638855,769.705078 
	C462.638855,763.495972 462.740417,757.545837 462.529938,751.606750 
	C462.498138,750.710327 461.155701,749.400024 460.167694,749.093872 
	C458.125458,748.461060 455.918121,748.339233 453.770721,748.070801 
	C431.633545,745.303894 409.500671,742.500366 387.350830,739.838623 
	C383.467834,739.371948 381.728607,738.190186 381.732544,733.708435 
	C381.864685,584.231689 381.862030,434.754791 381.748779,285.277954 
	C381.745300,280.722870 383.289246,279.708923 387.509949,279.747620 
	C407.505157,279.930908 427.502991,279.827942 448.499939,279.826996 
M555.108704,700.354858 
	C560.279724,709.722839 568.250183,715.286255 578.679321,717.153320 
	C593.745178,719.850586 607.786438,716.379211 621.049377,709.289978 
	C622.380066,708.578674 623.659424,706.665955 623.856140,705.165771 
	C624.281067,701.925781 623.986877,698.591492 623.986877,694.789978 
	C621.860229,695.101807 620.273865,695.399475 618.673645,695.557434 
	C612.561890,696.160461 606.439392,697.239868 600.332886,697.164795 
	C592.247681,697.065369 586.890381,692.696655 584.567505,684.950073 
	C583.530273,681.491272 582.910522,677.767883 582.899597,674.162109 
	C582.775879,633.331055 582.857788,592.499268 582.716553,551.668335 
	C582.702698,547.661133 584.030945,546.559204 587.872070,546.601379 
	C603.202820,546.769897 618.536560,546.679138 633.869202,546.651184 
	C635.800598,546.647644 637.731689,546.446838 639.661560,546.337585 
	C639.661560,540.665222 639.661560,535.580200 639.661560,530.329346 
	C593.263184,530.329346 547.206726,530.329346 500.683289,530.329346 
	C499.358795,544.087402 498.062500,557.552124 496.773956,570.936646 
	C507.414673,572.802063 507.610321,572.697510 510.840668,564.057312 
	C512.589722,559.379211 514.250732,554.664978 516.144287,550.046082 
	C516.648987,548.815002 517.844727,546.961365 518.756531,546.941711 
	C529.008606,546.720459 539.267212,546.801758 550.023560,546.801758 
	C550.023560,549.640747 550.023254,551.770691 550.023560,553.900635 
	C550.029602,594.898743 549.797424,635.899597 550.255859,676.892639 
	C550.341003,684.503052 553.207458,692.082397 555.108704,700.354858 
z"/> -->
<path fill="#97961A" opacity="1.000000" stroke="none" 
	d="
M447.999939,279.826965 
	C427.502991,279.827942 407.505157,279.930908 387.509949,279.747620 
	C383.289246,279.708923 381.745300,280.722870 381.748779,285.277954 
	C381.862030,434.754791 381.864685,584.231689 381.732544,733.708435 
	C381.728607,738.190186 383.467834,739.371948 387.350830,739.838623 
	C409.500671,742.500366 431.633545,745.303894 453.770721,748.070801 
	C455.918121,748.339233 458.125458,748.461060 460.167694,749.093872 
	C461.155701,749.400024 462.498138,750.710327 462.529938,751.606750 
	C462.740417,757.545837 462.638855,763.495972 462.638855,769.705078 
	C387.850037,769.705078 313.784119,769.705078 239.048019,769.705078 
	C239.048019,763.481873 238.794067,757.521851 239.261871,751.619080 
	C239.355667,750.435608 242.085464,748.789612 243.788620,748.511108 
	C257.917053,746.200623 272.090607,744.166382 286.248840,742.037781 
	C291.681213,741.221069 297.100769,740.313232 302.543121,739.571289 
	C305.167145,739.213562 306.369904,737.973511 306.090668,735.286438 
	C305.970764,734.132751 306.080719,732.955627 306.080719,731.789124 
	C306.081268,582.812195 306.081421,433.835205 306.080505,284.858246 
	C306.080444,277.289429 306.076538,277.284302 298.446167,276.102753 
	C280.514709,273.326050 262.593445,270.480133 244.642151,267.838074 
	C240.582642,267.240570 238.445175,265.951263 238.900085,261.294708 
	C239.365631,256.529388 239.003220,251.683228 239.003220,246.336716 
	C241.152130,246.208420 242.911957,246.011566 244.671814,246.011368 
	C376.484772,245.997025 508.297791,246.019653 640.110657,245.906982 
	C644.616821,245.903122 645.914856,247.121750 646.115784,251.699112 
	C648.139893,297.801361 650.420715,343.892395 652.653748,389.985382 
	C652.965881,396.428864 652.908447,396.574615 646.658508,396.613281 
	C641.992737,396.642151 637.309265,396.368958 632.665894,396.692841 
	C628.543518,396.980408 626.876404,395.467194 625.991211,391.396088 
	C618.847412,358.541168 611.397766,325.752716 604.266479,292.895142 
	C603.387146,288.843781 601.800903,287.149078 597.619446,286.464813 
	C569.914490,281.930908 541.959290,280.715240 513.984985,280.085052 
	C492.165771,279.593536 470.328949,279.884003 447.999939,279.826965 
z"/>
<path fill="#D45C0F" opacity="1.000000" stroke="none" 
	d="
M554.949463,700.015503 
	C553.207458,692.082397 550.341003,684.503052 550.255859,676.892639 
	C549.797424,635.899597 550.029602,594.898743 550.023560,553.900635 
	C550.023254,551.770691 550.023560,549.640747 550.023560,546.801758 
	C539.267212,546.801758 529.008606,546.720459 518.756531,546.941711 
	C517.844727,546.961365 516.648987,548.815002 516.144287,550.046082 
	C514.250732,554.664978 512.589722,559.379211 510.840668,564.057312 
	C507.610321,572.697510 507.414673,572.802063 496.773956,570.936646 
	C498.062500,557.552124 499.358795,544.087402 500.683289,530.329346 
	C547.206726,530.329346 593.263184,530.329346 639.661560,530.329346 
	C639.661560,535.580200 639.661560,540.665222 639.661560,546.337585 
	C637.731689,546.446838 635.800598,546.647644 633.869202,546.651184 
	C618.536560,546.679138 603.202820,546.769897 587.872070,546.601379 
	C584.030945,546.559204 582.702698,547.661133 582.716553,551.668335 
	C582.857788,592.499268 582.775879,633.331055 582.899597,674.162109 
	C582.910522,677.767883 583.530273,681.491272 584.567505,684.950073 
	C586.890381,692.696655 592.247681,697.065369 600.332886,697.164795 
	C606.439392,697.239868 612.561890,696.160461 618.673645,695.557434 
	C620.273865,695.399475 621.860229,695.101807 623.986877,694.789978 
	C623.986877,698.591492 624.281067,701.925781 623.856140,705.165771 
	C623.659424,706.665955 622.380066,708.578674 621.049377,709.289978 
	C607.786438,716.379211 593.745178,719.850586 578.679321,717.153320 
	C568.250183,715.286255 560.279724,709.722839 554.949463,700.015503 
z"/>
</svg>